<svg width="244" height="43" viewBox="0 0 244 43" fill="none" xmlns="http://www.w3.org/2000/svg">
<path d="M22.2643 26.9823L20.7334 31.7327C20.6058 32.1128 20.2231 32.2394 19.9042 32.0494L2.29935 20.5218C1.91663 20.2684 1.98042 19.6984 2.29935 19.5083L26.3466 8.55074L27.4947 8.04403C27.9412 7.85401 28.3877 8.23404 28.3239 8.74075L26.9206 12.9845H37.9556C35.2128 5.44714 28.005 0 19.5215 0C11.038 0 0.130633 8.55074 0.00306199 19.065C-0.188295 29.8959 8.61413 38.7 19.4577 38.7C30.3013 38.7 34.3198 33.8863 37.3177 26.9823H22.1367H22.2643Z" fill="#E80028"/>
<path d="M48.8156 20.3228V20.3032C48.8156 12.4448 53.3412 7.60027 60.4595 7.60027C66.1725 7.60027 70.3683 11.1307 71.0214 16.1386L71.0412 16.3086H66.6871L66.6013 15.9817C65.8757 13.1705 63.692 11.4118 60.4595 11.4118C56.1252 11.4118 53.3544 14.8376 53.3544 20.2966V20.3162C53.3544 25.7884 56.1384 29.2338 60.4595 29.2338C63.6261 29.2338 65.8427 27.547 66.6541 24.5135L66.7069 24.3435H71.061L71.028 24.5135C70.3947 29.5606 66.1791 33.0584 60.4661 33.0584C53.328 33.0584 48.8222 28.1812 48.8222 20.3228H48.8156Z" fill="#0154B8"/>
<path d="M73.8581 9.65313C73.8581 8.35865 74.9071 7.31915 76.2463 7.31915C77.5855 7.31915 78.6212 8.35865 78.6212 9.65313C78.6212 10.9476 77.5921 11.974 76.2463 11.974C74.9005 11.974 73.8581 10.9149 73.8581 9.65313ZM74.1022 14.563H78.3837V32.6334H74.1022V14.563Z" fill="#0154B8"/>
<path d="M83.1666 27.7431V17.8384H80.5872V14.563H83.1666V9.98002H87.5207V14.563H90.9116V17.8384H87.5207V27.3836C87.5207 29.1553 88.3123 29.7176 89.8758 29.7176C90.2915 29.7176 90.6147 29.6653 90.905 29.6522V32.8426C90.4036 32.908 89.6515 32.9995 88.7873 32.9995C84.9676 32.9995 83.16 31.4631 83.16 27.7497L83.1666 27.7431Z" fill="#0154B8"/>
<path d="M94.0716 38.452V35.2093C94.4014 35.2747 94.8962 35.3596 95.4966 35.3596C97.1326 35.3596 98.043 34.902 98.5906 33.3852L98.8479 32.653L92.2904 14.563H96.9677L101.236 29.018H101.355L105.636 14.563H110.142L103.585 33.2479C102.193 37.2229 100.055 38.6351 96.2552 38.6351C95.4306 38.6351 94.5664 38.5305 94.0518 38.4455L94.0716 38.452Z" fill="#0154B8"/>
<path d="M112.134 14.563H116.416V17.4592H116.502C117.274 15.4848 119.154 14.1838 121.562 14.1838C124.108 14.1838 125.949 15.511 126.622 17.8319H126.727C127.605 15.5829 129.775 14.1838 132.407 14.1838C136.003 14.1838 138.358 16.6028 138.358 20.2182V32.6269H134.076V21.2708C134.076 19.0348 132.909 17.76 130.811 17.76C128.713 17.76 127.334 19.2767 127.334 21.4603V32.6269H123.171V21.0485C123.171 19.0218 121.931 17.76 119.939 17.76C117.946 17.76 116.429 19.3617 116.429 21.5649V32.6269H112.148V14.5565L112.134 14.563Z" fill="#0154B8"/>
<path d="M141.016 23.5982V23.5655C141.016 17.7665 144.526 14.1903 149.824 14.1903C155.121 14.1903 158.664 17.7338 158.664 23.5655V23.5982C158.664 29.4626 155.187 32.993 149.837 32.993C144.486 32.993 141.01 29.4495 141.01 23.5982H141.016ZM154.296 23.5982V23.5655C154.296 19.7998 152.542 17.6292 149.824 17.6292C147.106 17.6292 145.384 19.8128 145.384 23.5655V23.5982C145.384 27.4032 147.119 29.5672 149.857 29.5672C152.594 29.5672 154.296 27.3836 154.296 23.5982Z" fill="#0154B8"/>
<path d="M161.415 14.563H165.696V17.3939H165.782C166.725 15.4521 168.586 14.1903 171.356 14.1903C175.367 14.1903 177.65 16.7466 177.65 20.9439V32.6399H173.368V21.8003C173.368 19.2244 172.161 17.7796 169.72 17.7796C167.279 17.7796 165.696 19.5513 165.696 22.1599V32.6465H161.415V14.5761V14.563Z" fill="#0154B8"/>
<path d="M180.955 9.65313C180.955 8.35865 182.004 7.31915 183.343 7.31915C184.683 7.31915 185.718 8.35865 185.718 9.65313C185.718 10.9476 184.689 11.974 183.343 11.974C181.997 11.974 180.955 10.9149 180.955 9.65313ZM181.199 14.563H185.481V32.6334H181.199V14.563Z" fill="#0154B8"/>
<path d="M190.264 27.7431V17.8384H187.684V14.563H190.264V9.98002H194.618V14.563H198.009V17.8384H194.618V27.3836C194.618 29.1553 195.409 29.7176 196.973 29.7176C197.388 29.7176 197.712 29.6653 198.002 29.6522V32.8426C197.501 32.908 196.749 32.9995 195.884 32.9995C192.065 32.9995 190.257 31.4631 190.257 27.7497L190.264 27.7431Z" fill="#0154B8"/>
<path d="M199.823 23.5982V23.5655C199.823 17.7665 203.332 14.1903 208.63 14.1903C213.927 14.1903 217.47 17.7338 217.47 23.5655V23.5982C217.47 29.4626 213.993 32.993 208.643 32.993C203.293 32.993 199.816 29.4495 199.816 23.5982H199.823ZM213.109 23.5982V23.5655C213.109 19.7998 211.354 17.6292 208.636 17.6292C205.918 17.6292 204.197 19.8128 204.197 23.5655V23.5982C204.197 27.4032 205.932 29.5672 208.669 29.5672C211.407 29.5672 213.109 27.3836 213.109 23.5982Z" fill="#0154B8"/>
<path d="M220.228 14.563H224.509V17.6815H224.595C225.162 15.4979 226.68 14.1838 228.777 14.1838C229.312 14.1838 229.807 14.2688 230.136 14.3538V18.1915C229.774 18.0542 229.12 17.9561 228.401 17.9561C225.974 17.9561 224.516 19.4729 224.516 22.1534V32.6399H220.234V14.5695L220.228 14.563Z" fill="#0154B8"/>
</svg>
